<svg width="15" height="21" viewBox="0 0 15 21" fill="none" xmlns="http://www.w3.org/2000/svg">
<mask id="mask0" mask-type="alpha" maskUnits="userSpaceOnUse" x="0" y="0" width="15" height="21">
<path d="M8 16.5C8 18.1569 6.65685 19.5 5 19.5C3.34315 19.5 2 18.1569 2 16.5C2 14.8431 3.34315 13.5 5 13.5C6.65685 13.5 8 14.8431 8 16.5Z" fill="#000AFF"/>
<path d="M8 2L8 7H13.5L8 2Z" fill="#000AFF"/>
<path d="M8 2L8 16.5M8 2L8 7H13.5L8 2ZM8 16.5C8 18.1569 6.65685 19.5 5 19.5C3.34315 19.5 2 18.1569 2 16.5C2 14.8431 3.34315 13.5 5 13.5C6.65685 13.5 8 14.8431 8 16.5Z" stroke="#000AFF" stroke-width="3" stroke-linecap="round" stroke-linejoin="round"/>
</mask>
<g mask="url(#mask0)">
<path d="M-7 -1.48349e-06H19V21H-7V-1.48349e-06Z" fill="url(#paint0_linear)"/>
</g>
<defs>
<linearGradient id="paint0_linear" x1="6" y1="0.388889" x2="6" y2="21.3889" gradientUnits="userSpaceOnUse">
<stop stop-color="#000AFF"/>
<stop offset="1" stop-color="#FF0000"/>
</linearGradient>
</defs>
</svg>
